<svg width="120" height="32" viewBox="0 0 120 32" fill="none" xmlns="http://www.w3.org/2000/svg">
<path d="M98.6854 12.2113C94.8914 10.009 92.0139 8.34857 89.1475 6.66927C88.1791 6.10196 87.1917 5.54957 86.2963 4.87917C85.0438 3.94117 83.2112 2.99437 84.2389 1.10657C85.21 -0.677334 87.1135 0.129654 88.5888 0.558655C90.1158 1.00266 91.5771 1.71276 93.0169 2.41006C99.5084 5.55416 105.994 8.71196 112.455 11.9179C114.172 12.7702 115.928 13.6398 117.437 14.7997C120.623 17.2477 120.483 19.5821 116.927 21.4217C112.229 23.8519 107.39 26.0128 102.597 28.257C100.565 29.2087 98.5394 30.2126 96.4224 30.9321C95.2259 31.3388 93.8495 31.2161 92.5019 31.3365C92.14 28.5347 93.7353 27.9502 95.13 27.2138C98.676 25.3421 102.229 23.4838 105.767 21.5962C107.014 20.9307 108.224 20.1961 109.454 18.6423C107.695 18.4439 105.94 18.1573 104.176 18.0613C90.7137 17.3288 77.25 16.6256 63.786 15.9284C44.232 14.9158 24.676 13.9375 5.12504 12.8708C3.53234 12.7839 1.97085 12.1295 -5.34058e-05 11.641C1.78495 8.94946 3.86584 9.55036 5.63374 9.59636C15.2606 9.84636 24.8848 10.2017 34.5097 10.5265C55.2026 11.2248 75.8952 11.9275 96.5884 12.6179C96.8934 12.6281 97.2028 12.5051 98.6854 12.2113Z" fill="black"/>
</svg>
